<svg enable-background="new 0 0 72 72" viewBox="0 0 72 72" xmlns="http://www.w3.org/2000/svg"><path d="m71.3 10.2c0-1.7-1.3-3-3-3h-53.8c-1.7 0-3 1.3-3 3v43.9l-10.8 10.7 65.7-.1h2c1.7 0 3-1.3 3-3v-51.5z" fill="#326de6"/><g fill="#fff"><path d="m33 52.4c-4.5-4.5-4.5-11.7 0-16.2s11.7-4.5 16.2 0 4.5 11.7 0 16.2l-5-5c1.7-1.7 1.7-4.6 0-6.3s-4.6-1.7-6.3 0-1.7 4.6 0 6.3z"/><path d="m25.1 33.7-5.9-3.8c3.9-6 10.1-10.1 17.2-11.4 3.1-.6 6.3-.6 9.4 0 7 1.3 13.2 5.4 17.2 11.4l-5.9 3.8c-2.9-4.4-7.4-7.4-12.6-8.3-2.3-.4-4.6-.4-6.9 0-5.1.9-9.6 3.9-12.5 8.3z"/></g></svg>