<?xml version="1.0" encoding="utf-8"?>
<!-- Generator: Adobe Illustrator 24.2.1, SVG Export Plug-In . SVG Version: 6.00 Build 0)  -->
<svg version="1.1" id="Layer_1" xmlns="http://www.w3.org/2000/svg" xmlns:xlink="http://www.w3.org/1999/xlink" x="0px" y="0px"
	 viewBox="0 0 72 72" style="enable-background:new 0 0 72 72;" xml:space="preserve">
<style type="text/css">
	.st0{fill:#326DE6;}
	.st1{fill:#FFFFFF;}
</style>
<path class="st0" d="M64.5,13.8c0-1.5-1.1-2.6-2.6-2.6H14.5c-1.5,0-2.6,1.1-2.6,2.6v38.7l-9.5,9.4l57.9-0.1H62
	c1.5,0,2.6-1.1,2.6-2.6L64.5,13.8L64.5,13.8z"/>
<g>
	<path class="st1" d="M30.8,51c-4-4-4-10.3,0-14.3s10.3-4,14.3,0s4,10.3,0,14.3l-4.4-4.4c1.5-1.5,1.5-4.1,0-5.6
		c-1.5-1.5-4.1-1.5-5.6,0c-1.5,1.5-1.5,4.1,0,5.6L30.8,51z"/>
	<path class="st1" d="M23.8,34.5l-5.2-3.4c3.4-5.3,8.9-8.9,15.2-10.1c2.7-0.5,5.6-0.5,8.3,0c6.2,1.1,11.6,4.8,15.2,10.1L52,34.5
		c-2.6-3.9-6.5-6.5-11.1-7.3c-2-0.4-4.1-0.4-6.1,0C30.3,28,26.4,30.6,23.8,34.5z"/>
</g>
</svg>
