<?xml version="1.0" standalone="no"?>
<!DOCTYPE svg PUBLIC "-//W3C//DTD SVG 20010904//EN"
 "http://www.w3.org/TR/2001/REC-SVG-20010904/DTD/svg10.dtd">
<svg version="1.0" xmlns="http://www.w3.org/2000/svg"
 width="700.000000pt" height="700.000000pt" viewBox="0 0 700.000000 700.000000"
 preserveAspectRatio="xMidYMid meet">
<metadata>
Created by potrace 1.11, written by Peter Selinger 2001-2013
</metadata>
<g transform="translate(0.000000,700.000000) scale(0.100000,-0.100000)"
fill="#000000" stroke="none">
<path d="M1296 6275 c-32 -13 -71 -36 -86 -50 -35 -33 -77 -110 -85 -155 -4
-19 -7 -1001 -7 -2182 l-1 -2148 -525 -520 -524 -521 3293 6 c1812 3 3315 8
3341 11 27 3 50 10 54 15 3 5 13 9 23 9 11 0 43 24 72 53 100 98 90 -187 90
2682 1 1383 -2 2522 -5 2532 -2 10 -7 35 -11 57 -12 83 -73 164 -155 207 l-45
24 -2685 2 -2685 3 -59 -25z m2899 -1039 c118 -10 196 -22 315 -47 153 -33
254 -62 390 -114 84 -32 303 -135 355 -168 281 -173 443 -304 644 -522 63 -68
221 -273 221 -287 0 -6 -102 -77 -162 -113 -10 -5 -103 -65 -207 -132 -104
-68 -193 -123 -198 -123 -4 1 -29 31 -56 68 -244 344 -642 612 -1050 706 -174
40 -259 50 -442 51 -177 0 -257 -7 -391 -34 -384 -79 -697 -255 -979 -551 -24
-25 -54 -58 -67 -75 -12 -16 -31 -39 -41 -50 -10 -11 -32 -41 -49 -67 -16 -27
-34 -48 -39 -48 -5 0 -41 21 -81 47 -40 27 -78 50 -83 53 -6 3 -55 35 -110 71
-55 36 -144 93 -198 128 -53 35 -97 65 -97 68 0 3 28 44 62 91 394 546 998
918 1658 1022 118 18 121 19 205 25 44 4 81 8 82 9 4 4 255 -2 318 -8z m-55
-1437 c481 -64 866 -434 955 -919 18 -95 13 -328 -9 -424 -36 -159 -115 -325
-215 -450 -93 -117 -56 -133 -331 142 l-241 241 36 49 c57 80 74 130 82 233
25 333 -314 556 -621 410 -141 -68 -225 -202 -231 -369 -4 -111 30 -216 90
-286 14 -16 24 -33 23 -37 -2 -4 -108 -114 -236 -245 l-234 -238 -32 35 c-188
202 -286 449 -291 730 -4 248 54 444 193 652 42 63 162 193 222 242 147 117
355 207 535 231 28 3 52 8 53 9 7 7 190 2 252 -6z"/>
</g>
</svg>
